<svg width="25" height="25" viewBox="0 0 25 25" fill="none" xmlns="http://www.w3.org/2000/svg">
<path d="M22.6562 3.90625H2.34375C1.91162 3.90625 1.5625 4.25537 1.5625 4.6875V20.3125C1.5625 20.7446 1.91162 21.0938 2.34375 21.0938H22.6562C23.0884 21.0938 23.4375 20.7446 23.4375 20.3125V4.6875C23.4375 4.25537 23.0884 3.90625 22.6562 3.90625ZM21.6797 19.3359H3.32031V18.3618L6.70166 14.3506L10.3662 18.6963L16.0669 11.9385L21.6797 18.5937V19.3359ZM21.6797 16.167L16.2158 9.6875C16.1377 9.59473 15.9961 9.59473 15.918 9.6875L10.3662 16.2695L6.85059 12.1021C6.77246 12.0093 6.63086 12.0093 6.55273 12.1021L3.32031 15.9351V5.66406H21.6797V16.167ZM7.42188 11.1328C7.70401 11.1328 7.98339 11.0772 8.24405 10.9693C8.50471 10.8613 8.74155 10.7031 8.94105 10.5036C9.14055 10.304 9.2988 10.0672 9.40677 9.80655C9.51474 9.54589 9.57031 9.26651 9.57031 8.98438C9.57031 8.70224 9.51474 8.42286 9.40677 8.1622C9.2988 7.90154 9.14055 7.6647 8.94105 7.4652C8.74155 7.2657 8.50471 7.10745 8.24405 6.99948C7.98339 6.89151 7.70401 6.83594 7.42188 6.83594C6.85207 6.83594 6.30561 7.06229 5.9027 7.4652C5.49979 7.86811 5.27344 8.41457 5.27344 8.98438C5.27344 9.55418 5.49979 10.1006 5.9027 10.5036C6.30561 10.9065 6.85207 11.1328 7.42188 11.1328ZM7.42188 8.30078C7.80029 8.30078 8.10547 8.60596 8.10547 8.98438C8.10547 9.36279 7.80029 9.66797 7.42188 9.66797C7.04346 9.66797 6.73828 9.36279 6.73828 8.98438C6.73828 8.60596 7.04346 8.30078 7.42188 8.30078Z" fill="#595A63"/>
</svg>
