<svg width="25" height="25" viewBox="0 0 25 25" fill="none" xmlns="http://www.w3.org/2000/svg">
<path d="M20.3125 10.8032V20.3125C20.3125 20.9341 20.0656 21.5302 19.626 21.9698C19.1865 22.4093 18.5904 22.6562 17.9688 22.6562H7.03125C6.40965 22.6562 5.81351 22.4093 5.37397 21.9698C4.93443 21.5302 4.6875 20.9341 4.6875 20.3125V4.6875C4.6875 4.0659 4.93443 3.46976 5.37397 3.03022C5.81351 2.59068 6.40965 2.34375 7.03125 2.34375H11.853C12.2673 2.34381 12.6646 2.50838 12.9575 2.80127L19.855 9.69873C20.1479 9.99169 20.3124 10.389 20.3125 10.8032Z" stroke="#595A63" stroke-width="2" stroke-linejoin="round"/>
<path d="M12.5 2.73438V8.59375C12.5 9.00815 12.6646 9.40558 12.9576 9.6986C13.2507 9.99163 13.6481 10.1562 14.0625 10.1562H19.9219" stroke="#595A63" stroke-width="2" stroke-linecap="round" stroke-linejoin="round"/>
</svg>
