<svg width="28" height="28" viewBox="0 0 28 28" fill="none" xmlns="http://www.w3.org/2000/svg">
<path d="M19.8333 8.16665H24.6666C25.2189 8.16665 25.6666 8.61436 25.6666 9.16665V18.8333C25.6666 19.3856 25.2189 19.8333 24.6666 19.8333H19.8333V22.1666C19.8333 22.4761 19.9562 22.7728 20.175 22.9916C20.3938 23.2104 20.6905 23.3333 20.9999 23.3333H22.3333C22.8855 23.3333 23.3333 23.781 23.3333 24.3333V24.6666C23.3333 25.2189 22.8855 25.6666 22.3333 25.6666H20.4166C19.7749 25.6666 18.6666 25.1416 18.6666 24.5C18.6666 25.1416 17.5583 25.6666 16.9166 25.6666H14.9999C14.4476 25.6666 13.9999 25.2189 13.9999 24.6666V24.3333C13.9999 23.781 14.4476 23.3333 14.9999 23.3333H16.3333C16.6427 23.3333 16.9394 23.2104 17.1582 22.9916C17.377 22.7728 17.4999 22.4761 17.4999 22.1666V5.83331C17.4999 5.52389 17.377 5.22715 17.1582 5.00836C16.9394 4.78956 16.6427 4.66665 16.3333 4.66665H14.9999C14.4476 4.66665 13.9999 4.21893 13.9999 3.66665V3.33331C13.9999 2.78103 14.4476 2.33331 14.9999 2.33331H16.9166C17.5583 2.33331 18.6666 2.85831 18.6666 3.49998C18.6666 2.85831 19.7749 2.33331 20.4166 2.33331H22.3333C22.8855 2.33331 23.3333 2.78103 23.3333 3.33331V3.66665C23.3333 4.21893 22.8855 4.66665 22.3333 4.66665H20.9999C20.6905 4.66665 20.3938 4.78956 20.175 5.00836C19.9562 5.22715 19.8333 5.52389 19.8333 5.83331V8.16665ZM2.33325 9.16665C2.33325 8.61436 2.78097 8.16665 3.33325 8.16665H15.1666V10.5H4.66659V17.5H15.1666V19.8333H3.33325C2.78097 19.8333 2.33325 19.3856 2.33325 18.8333V9.16665ZM23.3333 17.5V10.5H19.8333V17.5H23.3333ZM9.91659 14C9.91659 13.7702 9.87132 13.5426 9.78338 13.3303C9.69543 13.118 9.56653 12.925 9.40402 12.7625C9.24152 12.6 9.0486 12.4711 8.83628 12.3832C8.62396 12.2952 8.3964 12.25 8.16659 12.25C7.93677 12.25 7.70921 12.2952 7.49689 12.3832C7.28457 12.4711 7.09165 12.6 6.92915 12.7625C6.76665 12.925 6.63774 13.118 6.5498 13.3303C6.46185 13.5426 6.41659 13.7702 6.41659 14C6.41659 14.4641 6.60096 14.9092 6.92915 15.2374C7.25734 15.5656 7.70246 15.75 8.16659 15.75C8.63071 15.75 9.07583 15.5656 9.40402 15.2374C9.73221 14.9092 9.91659 14.4641 9.91659 14ZM15.1666 12.705C14.9157 12.477 14.604 12.3267 14.2694 12.2725C13.9347 12.2183 13.5915 12.2624 13.2815 12.3996C12.9715 12.5368 12.7079 12.761 12.523 13.0451C12.338 13.3292 12.2395 13.661 12.2395 14C12.2395 14.339 12.338 14.6707 12.523 14.9548C12.7079 15.2389 12.9715 15.4632 13.2815 15.6003C13.5915 15.7375 13.9347 15.7817 14.2694 15.7275C14.604 15.6733 14.9157 15.523 15.1666 15.295V12.705Z" fill="#595A63"/>
</svg>
