<svg width="28" height="28" viewBox="0 0 28 28" fill="none" xmlns="http://www.w3.org/2000/svg">
<path opacity="0.3" d="M5.83334 21.0933V22.1667H6.90668L17.4767 11.5967L16.4033 10.5233L5.83334 21.0933Z" fill="#2C42C8"/>
<path d="M24.1617 8.21333C24.2698 8.1054 24.3556 7.9772 24.4142 7.83606C24.4727 7.69493 24.5028 7.54363 24.5028 7.39083C24.5028 7.23804 24.4727 7.08674 24.4142 6.94561C24.3556 6.80447 24.2698 6.67627 24.1617 6.56833L21.4317 3.83833C21.1983 3.605 20.9067 3.5 20.6033 3.5C20.3 3.5 20.0083 3.61667 19.7867 3.83833L17.6517 5.97333L22.0267 10.3483L24.1617 8.21333V8.21333ZM3.5 20.125V24.5H7.875L20.7783 11.5967L16.4033 7.22167L3.5 20.125ZM6.90667 22.1667H5.83333V21.0933L16.4033 10.5233L17.4767 11.5967L6.90667 22.1667Z" fill="#2C42C8"/>
</svg>
