<svg width="20" height="20" viewBox="0 0 20 20" fill="none" xmlns="http://www.w3.org/2000/svg">
<path d="M10 1.66669C5.40002 1.66669 1.66669 5.40002 1.66669 10C1.66669 14.6 5.40002 18.3334 10 18.3334C14.6 18.3334 18.3334 14.6 18.3334 10C18.3334 5.40002 14.6 1.66669 10 1.66669ZM10 16.6667C6.31669 16.6667 3.33335 13.6834 3.33335 10C3.33335 6.31669 6.31669 3.33335 10 3.33335C13.6834 3.33335 16.6667 6.31669 16.6667 10C16.6667 13.6834 13.6834 16.6667 10 16.6667Z" fill="#2C42C8"/>
<path d="M9.99998 14.1666C12.3012 14.1666 14.1666 12.3012 14.1666 9.99998C14.1666 7.69879 12.3012 5.83331 9.99998 5.83331C7.69879 5.83331 5.83331 7.69879 5.83331 9.99998C5.83331 12.3012 7.69879 14.1666 9.99998 14.1666Z" fill="#2C42C8"/>
</svg>
